REM DIRINDEX 1\3,1\4,1\5,1\6,1\2\7,1\2\8,1\2\9,1\2\10,1\2\11
REM DIRNAME folder01,folder02,folder03,folder04,folder05,folder06,folder07,folder08,folder09,folder10,folder11
TITLE ""
FILE "DISC5Track42.mp3" MP3
  TRACK 01 AUDIO
    TITLE "0:"
    INDEX 01 00:00:00
  TRACK 02 AUDIO
    TITLE "3:cjc021_5958"
    INDEX 01 00:00:23
  TRACK 03 AUDIO
    TITLE "0:"
    INDEX 01 00:01:46
  TRACK 04 AUDIO
    TITLE "4:cjc021_5959"
    INDEX 01 00:03:21
  TRACK 05 AUDIO
    TITLE "0:"
    INDEX 01 00:04:46
  TRACK 06 AUDIO
    TITLE "5:cjc021_5960"
    INDEX 01 00:05:07
  TRACK 07 AUDIO
    TITLE "0:"
    INDEX 01 00:08:46
  TRACK 08 AUDIO
    TITLE "3:cjc021_5961"
    INDEX 01 00:10:04
  TRACK 09 AUDIO
    TITLE "0:"
    INDEX 01 00:11:11
  TRACK 10 AUDIO
    TITLE "4:cjc021_5962"
    INDEX 01 00:12:60
  TRACK 11 AUDIO
    TITLE "0:"
    INDEX 01 00:13:65
  TRACK 12 AUDIO
    TITLE "5:cjc021_5963"
    INDEX 01 00:14:25
  TRACK 13 AUDIO
    TITLE "0:"
    INDEX 01 00:16:32
  TRACK 14 AUDIO
    TITLE "3:cjc021_5964"
    INDEX 01 00:17:67
  TRACK 15 AUDIO
    TITLE "0:"
    INDEX 01 00:19:30
  TRACK 16 AUDIO
    TITLE "4:cjc021_5965"
    INDEX 01 00:21:04
  TRACK 17 AUDIO
    TITLE "0:"
    INDEX 01 00:22:42
  TRACK 18 AUDIO
    TITLE "5:cjc021_5966"
    INDEX 01 00:23:01
  TRACK 19 AUDIO
    TITLE "0:"
    INDEX 01 00:25:66
  TRACK 20 AUDIO
    TITLE "3:cjc021_5967"
    INDEX 01 00:27:26
  TRACK 21 AUDIO
    TITLE "0:"
    INDEX 01 00:28:47
  TRACK 22 AUDIO
    TITLE "4:cjc021_5968"
    INDEX 01 00:30:24
  TRACK 23 AUDIO
    TITLE "0:"
    INDEX 01 00:31:45
  TRACK 24 AUDIO
    TITLE "5:cjc021_5969"
    INDEX 01 00:32:05
  TRACK 25 AUDIO
    TITLE "0:"
    INDEX 01 00:34:20
  TRACK 26 AUDIO
    TITLE "3:cjc021_5970"
    INDEX 01 00:35:55
  TRACK 27 AUDIO
    TITLE "0:"
    INDEX 01 00:36:70
  TRACK 28 AUDIO
    TITLE "4:cjc021_5971"
    INDEX 01 00:38:49
  TRACK 29 AUDIO
    TITLE "0:"
    INDEX 01 00:39:66
  TRACK 30 AUDIO
    TITLE "5:cjc021_5972"
    INDEX 01 00:40:26
  TRACK 31 AUDIO
    TITLE "0:"
    INDEX 01 00:42:45
  TRACK 32 AUDIO
    TITLE "3:cjc021_5973"
    INDEX 01 00:44:07
  TRACK 33 AUDIO
    TITLE "0:"
    INDEX 01 00:45:18
  TRACK 34 AUDIO
    TITLE "4:cjc021_5974"
    INDEX 01 00:46:68
  TRACK 35 AUDIO
    TITLE "0:"
    INDEX 01 00:48:06
  TRACK 36 AUDIO
    TITLE "5:cjc021_5975"
    INDEX 01 00:48:40
  TRACK 37 AUDIO
    TITLE "0:"
    INDEX 01 00:50:68
  TRACK 38 AUDIO
    TITLE "3:cjc021_5976"
    INDEX 01 00:52:30
  TRACK 39 AUDIO
    TITLE "0:"
    INDEX 01 00:53:27
  TRACK 40 AUDIO
    TITLE "4:cjc021_5977"
    INDEX 01 00:55:01
  TRACK 41 AUDIO
    TITLE "0:"
    INDEX 01 00:55:73
  TRACK 42 AUDIO
    TITLE "5:cjc021_5978"
    INDEX 01 00:56:33
  TRACK 43 AUDIO
    TITLE "0:"
    INDEX 01 00:59:10
  TRACK 44 AUDIO
    TITLE "3:cjc021_5979"
    INDEX 01 01:00:47
  TRACK 45 AUDIO
    TITLE "0:"
    INDEX 01 01:01:54
  TRACK 46 AUDIO
    TITLE "4:cjc021_5980"
    INDEX 01 01:03:29
  TRACK 47 AUDIO
    TITLE "0:"
    INDEX 01 01:04:35
  TRACK 48 AUDIO
    TITLE "5:cjc021_5981"
    INDEX 01 01:04:74
  TRACK 49 AUDIO
    TITLE "0:"
    INDEX 01 01:07:47
  TRACK 50 AUDIO
    TITLE "3:cjc021_5982"
    INDEX 01 01:09:09
  TRACK 51 AUDIO
    TITLE "0:"
    INDEX 01 01:10:30
  TRACK 52 AUDIO
    TITLE "4:cjc021_5983"
    INDEX 01 01:12:03
  TRACK 53 AUDIO
    TITLE "0:"
    INDEX 01 01:13:22
  TRACK 54 AUDIO
    TITLE "5:cjc021_5984"
    INDEX 01 01:13:57
  TRACK 55 AUDIO
    TITLE "0:"
    INDEX 01 01:15:74
  TRACK 56 AUDIO
    TITLE "3:cjc021_5985"
    INDEX 01 01:17:35
  TRACK 57 AUDIO
    TITLE "0:"
    INDEX 01 01:18:54
  TRACK 58 AUDIO
    TITLE "4:cjc021_5986"
    INDEX 01 01:20:28
  TRACK 59 AUDIO
    TITLE "0:"
    INDEX 01 01:21:45
  TRACK 60 AUDIO
    TITLE "5:cjc021_5987"
    INDEX 01 01:22:03
  TRACK 61 AUDIO
    TITLE "0:"
    INDEX 01 01:24:61
